<?xml version="1.0" encoding="iso-8859-1"?>
<!-- Uploaded to: SVG Repo, www.svgrepo.com, Generator: SVG Repo Mixer Tools -->
<svg fill="#000000" height="800px" width="800px" version="1.1" id="Layer_1" xmlns="http://www.w3.org/2000/svg" xmlns:xlink="http://www.w3.org/1999/xlink" 
	 viewBox="0 0 340 340" xml:space="preserve">
<g id="XMLID_240_">
	<path id="XMLID_241_" d="M234.98,185.064h-49.98v-49.982c0-8.284-6.716-15-15.001-15c-8.284,0-15,6.716-15,15v64.982
		c0,8.284,6.716,15,15,15h64.98c8.284,0,15-6.716,15-15C249.98,191.779,243.264,185.064,234.98,185.064z"/>
	<path id="XMLID_242_" d="M267.046,99.193l18.56-18.56c5.858-5.858,5.858-15.355,0-21.213c-5.856-5.858-15.354-5.857-21.213,0
		L243.14,80.671C225.87,70.046,206.132,63.065,185,60.804V30h45c8.284,0,15-6.716,15-15s-6.716-15-15-15H110
		c-8.284,0-15,6.716-15,15s6.716,15,15,15h45v30.804c-21.132,2.261-40.871,9.243-58.142,19.868L75.607,59.42
		c-5.858-5.858-15.355-5.857-21.213,0c-5.858,5.858-5.858,15.356,0,21.213l18.56,18.561C46.491,124.678,30,160.448,30,200
		c0,77.196,62.804,140,140,140c77.196,0,140-62.804,140-140C310,160.447,293.509,124.678,267.046,99.193z M170,310
		c-60.654,0-110-49.346-110-110c0-60.655,49.346-110.001,110-110.001c60.654,0,110,49.346,110,110.001
		C280,260.654,230.654,310,170,310z"/>
</g>
</svg>