<?xml version="1.0" encoding="iso-8859-1"?>
<!-- Uploaded to: SVG Repo, www.svgrepo.com, Generator: SVG Repo Mixer Tools -->
<svg version="1.1" id="Layer_1" xmlns="http://www.w3.org/2000/svg" xmlns:xlink="http://www.w3.org/1999/xlink"
	 viewBox="0 0 512 512" xml:space="preserve">
<g>
	<g>
		<g>
			<path d="M246.677,69.504l-50.667,91.179l-90.517,10.048c-4.053,0.469-7.509,3.221-8.875,7.083
				c-1.387,3.861-0.405,8.171,2.496,11.072l70.635,70.635l-20.203,101.056c-0.811,4.075,0.811,8.256,4.16,10.709
				c3.371,2.453,7.829,2.709,11.477,0.704L256,321.536l90.816,50.453c1.621,0.896,3.413,1.344,5.184,1.344
				c2.219,0,4.416-0.683,6.272-2.048c3.349-2.453,4.971-6.635,4.16-10.709L342.229,259.52l70.635-70.635
				c2.901-2.901,3.861-7.189,2.517-11.072c-1.344-3.883-4.821-6.635-8.875-7.083l-90.539-10.048l-50.645-91.179
				C261.547,62.741,250.453,62.741,246.677,69.504z M300.011,175.851c1.685,3.008,4.736,5.035,8.149,5.419l73.963,8.213
				l-58.987,58.987c-2.517,2.539-3.627,6.144-2.923,9.643l16.811,84.032l-75.84-42.133c-1.621-0.896-3.392-1.344-5.184-1.344
				s-3.563,0.448-5.184,1.344l-75.84,42.133l16.811-84.032c0.704-3.499-0.405-7.125-2.923-9.643l-58.965-58.987l73.963-8.213
				c3.413-0.384,6.464-2.389,8.149-5.419L256,96.64L300.011,175.851z"/>
			<path d="M472.384,64.448l-213.333-64c-2.005-0.597-4.117-0.597-6.123,0l-213.333,64C35.115,65.792,32,69.952,32,74.667v234.667
				c0,94.336,143.829,178.219,220.843,202.197c1.003,0.32,2.112,0.469,3.157,0.469s2.155-0.149,3.136-0.469
				C336.171,487.552,480,403.669,480,309.333V74.667C480,69.952,476.928,65.792,472.384,64.448z M458.667,309.333
				c0,74.901-118.677,153.664-202.667,180.821c-83.989-27.157-202.667-105.92-202.667-180.821V82.603L256,21.803l202.667,60.8
				V309.333z"/>
		</g>
	</g>
</g>
</svg>